<?xml version='1.0' encoding='UTF-8'?>
<svg width="108mm" height="108mm" version="1.1" viewBox="0 0 108 108" xmlns="http://www.w3.org/2000/svg"><path d="M9.6,9.6H12V12H9.6zM12,9.6H14.4V12H12zM14.4,9.6H16.8V12H14.4zM16.8,9.6H19.2V12H16.8zM19.2,9.6H21.6V12H19.2zM21.6,9.6H24V12H21.6zM24,9.6H26.4V12H24zM31.2,9.6H33.6V12H31.2zM36,9.6H38.4V12H36zM38.4,9.6H40.8V12H38.4zM40.8,9.6H43.2V12H40.8zM45.6,9.6H48V12H45.6zM48,9.6H50.4V12H48zM57.6,9.6H60V12H57.6zM64.8,9.6H67.2V12H64.8zM69.6,9.6H72V12H69.6zM72,9.6H74.4V12H72zM81.6,9.6H84V12H81.6zM84,9.6H86.4V12H84zM86.4,9.6H88.8V12H86.4zM88.8,9.6H91.2V12H88.8zM91.2,9.6H93.6V12H91.2zM93.6,9.6H96V12H93.6zM96,9.6H98.4V12H96zM9.6,12H12V14.4H9.6zM24,12H26.4V14.4H24zM31.2,12H33.6V14.4H31.2zM33.6,12H36V14.4H33.6zM38.4,12H40.8V14.4H38.4zM40.8,12H43.2V14.4H40.8zM43.2,12H45.6V14.4H43.2zM50.4,12H52.8V14.4H50.4zM67.2,12H69.6V14.4H67.2zM72,12H74.4V14.4H72zM81.6,12H84V14.4H81.6zM96,12H98.4V14.4H96zM9.6,14.4H12V16.8H9.6zM14.4,14.4H16.8V16.8H14.4zM16.8,14.4H19.2V16.8H16.8zM19.2,14.4H21.6V16.8H19.2zM24,14.4H26.4V16.8H24zM28.8,14.4H31.2V16.8H28.8zM31.2,14.4H33.6V16.8H31.2zM38.4,14.4H40.8V16.8H38.4zM48,14.4H50.4V16.8H48zM52.8,14.4H55.2V16.8H52.8zM60,14.4H62.4V16.8H60zM67.2,14.4H69.6V16.8H67.2zM69.6,14.4H72V16.8H69.6zM72,14.4H74.4V16.8H72zM81.6,14.4H84V16.8H81.6zM86.4,14.4H88.8V16.8H86.4zM88.8,14.4H91.2V16.8H88.8zM91.2,14.4H93.6V16.8H91.2zM96,14.4H98.4V16.8H96zM9.6,16.8H12V19.2H9.6zM14.4,16.8H16.8V19.2H14.4zM16.8,16.8H19.2V19.2H16.8zM19.2,16.8H21.6V19.2H19.2zM24,16.8H26.4V19.2H24zM28.8,16.8H31.2V19.2H28.8zM33.6,16.8H36V19.2H33.6zM36,16.8H38.4V19.2H36zM38.4,16.8H40.8V19.2H38.4zM43.2,16.8H45.6V19.2H43.2zM45.6,16.8H48V19.2H45.6zM52.8,16.8H55.2V19.2H52.8zM57.6,16.8H60V19.2H57.6zM64.8,16.8H67.2V19.2H64.8zM67.2,16.8H69.6V19.2H67.2zM69.6,16.8H72V19.2H69.6zM74.4,16.8H76.8V19.2H74.4zM76.8,16.8H79.2V19.2H76.8zM81.6,16.8H84V19.2H81.6zM86.4,16.8H88.8V19.2H86.4zM88.8,16.8H91.2V19.2H88.8zM91.2,16.8H93.6V19.2H91.2zM96,16.8H98.4V19.2H96zM9.6,19.2H12V21.6H9.6zM14.4,19.2H16.8V21.6H14.4zM16.8,19.2H19.2V21.6H16.8zM19.2,19.2H21.6V21.6H19.2zM24,19.2H26.4V21.6H24zM33.6,19.2H36V21.6H33.6zM36,19.2H38.4V21.6H36zM38.4,19.2H40.8V21.6H38.4zM40.8,19.2H43.2V21.6H40.8zM43.2,19.2H45.6V21.6H43.2zM48,19.2H50.4V21.6H48zM52.8,19.2H55.2V21.6H52.8zM60,19.2H62.4V21.6H60zM64.8,19.2H67.2V21.6H64.8zM67.2,19.2H69.6V21.6H67.2zM72,19.2H74.4V21.6H72zM81.6,19.2H84V21.6H81.6zM86.4,19.2H88.8V21.6H86.4zM88.8,19.2H91.2V21.6H88.8zM91.2,19.2H93.6V21.6H91.2zM96,19.2H98.4V21.6H96zM9.6,21.6H12V24H9.6zM24,21.6H26.4V24H24zM31.2,21.6H33.6V24H31.2zM33.6,21.6H36V24H33.6zM38.4,21.6H40.8V24H38.4zM40.8,21.6H43.2V24H40.8zM45.6,21.6H48V24H45.6zM62.4,21.6H64.8V24H62.4zM81.6,21.6H84V24H81.6zM96,21.6H98.4V24H96zM9.6,24H12V26.4H9.6zM12,24H14.4V26.4H12zM14.4,24H16.8V26.4H14.4zM16.8,24H19.2V26.4H16.8zM19.2,24H21.6V26.4H19.2zM21.6,24H24V26.4H21.6zM24,24H26.4V26.4H24zM28.8,24H31.2V26.4H28.8zM33.6,24H36V26.4H33.6zM38.4,24H40.8V26.4H38.4zM43.2,24H45.6V26.4H43.2zM48,24H50.4V26.4H48zM52.8,24H55.2V26.4H52.8zM57.6,24H60V26.4H57.6zM62.4,24H64.8V26.4H62.4zM67.2,24H69.6V26.4H67.2zM72,24H74.4V26.4H72zM76.8,24H79.2V26.4H76.8zM81.6,24H84V26.4H81.6zM84,24H86.4V26.4H84zM86.4,24H88.8V26.4H86.4zM88.8,24H91.2V26.4H88.8zM91.2,24H93.6V26.4H91.2zM93.6,24H96V26.4H93.6zM96,24H98.4V26.4H96zM31.2,26.4H33.6V28.8H31.2zM36,26.4H38.4V28.8H36zM38.4,26.4H40.8V28.8H38.4zM43.2,26.4H45.6V28.8H43.2zM48,26.4H50.4V28.8H48zM50.4,26.4H52.8V28.8H50.4zM55.2,26.4H57.6V28.8H55.2zM60,26.4H62.4V28.8H60zM64.8,26.4H67.2V28.8H64.8zM67.2,26.4H69.6V28.8H67.2zM69.6,26.4H72V28.8H69.6zM74.4,26.4H76.8V28.8H74.4zM76.8,26.4H79.2V28.8H76.8zM16.8,28.8H19.2V31.2H16.8zM19.2,28.8H21.6V31.2H19.2zM24,28.8H26.4V31.2H24zM26.4,28.8H28.8V31.2H26.4zM33.6,28.8H36V31.2H33.6zM36,28.8H38.4V31.2H36zM40.8,28.8H43.2V31.2H40.8zM43.2,28.8H45.6V31.2H43.2zM45.6,28.8H48V31.2H45.6zM55.2,28.8H57.6V31.2H55.2zM57.6,28.8H60V31.2H57.6zM60,28.8H62.4V31.2H60zM62.4,28.8H64.8V31.2H62.4zM64.8,28.8H67.2V31.2H64.8zM67.2,28.8H69.6V31.2H67.2zM69.6,28.8H72V31.2H69.6zM76.8,28.8H79.2V31.2H76.8zM88.8,28.8H91.2V31.2H88.8zM91.2,28.8H93.6V31.2H91.2zM12,31.2H14.4V33.6H12zM16.8,31.2H19.2V33.6H16.8zM19.2,31.2H21.6V33.6H19.2zM28.8,31.2H31.2V33.6H28.8zM31.2,31.2H33.6V33.6H31.2zM33.6,31.2H36V33.6H33.6zM48,31.2H50.4V33.6H48zM55.2,31.2H57.6V33.6H55.2zM57.6,31.2H60V33.6H57.6zM62.4,31.2H64.8V33.6H62.4zM64.8,31.2H67.2V33.6H64.8zM67.2,31.2H69.6V33.6H67.2zM69.6,31.2H72V33.6H69.6zM79.2,31.2H81.6V33.6H79.2zM84,31.2H86.4V33.6H84zM86.4,31.2H88.8V33.6H86.4zM88.8,31.2H91.2V33.6H88.8zM93.6,31.2H96V33.6H93.6zM9.6,33.6H12V36H9.6zM12,33.6H14.4V36H12zM14.4,33.6H16.8V36H14.4zM24,33.6H26.4V36H24zM26.4,33.6H28.8V36H26.4zM28.8,33.6H31.2V36H28.8zM31.2,33.6H33.6V36H31.2zM33.6,33.6H36V36H33.6zM43.2,33.6H45.6V36H43.2zM50.4,33.6H52.8V36H50.4zM57.6,33.6H60V36H57.6zM67.2,33.6H69.6V36H67.2zM69.6,33.6H72V36H69.6zM79.2,33.6H81.6V36H79.2zM81.6,33.6H84V36H81.6zM88.8,33.6H91.2V36H88.8zM91.2,33.6H93.6V36H91.2zM96,33.6H98.4V36H96zM12,36H14.4V38.4H12zM19.2,36H21.6V38.4H19.2zM26.4,36H28.8V38.4H26.4zM33.6,36H36V38.4H33.6zM38.4,36H40.8V38.4H38.4zM45.6,36H48V38.4H45.6zM50.4,36H52.8V38.4H50.4zM55.2,36H57.6V38.4H55.2zM62.4,36H64.8V38.4H62.4zM67.2,36H69.6V38.4H67.2zM72,36H74.4V38.4H72zM74.4,36H76.8V38.4H74.4zM79.2,36H81.6V38.4H79.2zM81.6,36H84V38.4H81.6zM84,36H86.4V38.4H84zM86.4,36H88.8V38.4H86.4zM88.8,36H91.2V38.4H88.8zM91.2,36H93.6V38.4H91.2zM93.6,36H96V38.4H93.6zM96,36H98.4V38.4H96zM12,38.4H14.4V40.8H12zM14.4,38.4H16.8V40.8H14.4zM19.2,38.4H21.6V40.8H19.2zM21.6,38.4H24V40.8H21.6zM24,38.4H26.4V40.8H24zM26.4,38.4H28.8V40.8H26.4zM40.8,38.4H43.2V40.8H40.8zM43.2,38.4H45.6V40.8H43.2zM52.8,38.4H55.2V40.8H52.8zM60,38.4H62.4V40.8H60zM64.8,38.4H67.2V40.8H64.8zM76.8,38.4H79.2V40.8H76.8zM81.6,38.4H84V40.8H81.6zM84,38.4H86.4V40.8H84zM88.8,38.4H91.2V40.8H88.8zM93.6,38.4H96V40.8H93.6zM14.4,40.8H16.8V43.2H14.4zM16.8,40.8H19.2V43.2H16.8zM31.2,40.8H33.6V43.2H31.2zM33.6,40.8H36V43.2H33.6zM36,40.8H38.4V43.2H36zM38.4,40.8H40.8V43.2H38.4zM43.2,40.8H45.6V43.2H43.2zM50.4,40.8H52.8V43.2H50.4zM55.2,40.8H57.6V43.2H55.2zM57.6,40.8H60V43.2H57.6zM62.4,40.8H64.8V43.2H62.4zM69.6,40.8H72V43.2H69.6zM74.4,40.8H76.8V43.2H74.4zM76.8,40.8H79.2V43.2H76.8zM79.2,40.8H81.6V43.2H79.2zM86.4,40.8H88.8V43.2H86.4zM91.2,40.8H93.6V43.2H91.2zM9.6,43.2H12V45.6H9.6zM12,43.2H14.4V45.6H12zM14.4,43.2H16.8V45.6H14.4zM16.8,43.2H19.2V45.6H16.8zM21.6,43.2H24V45.6H21.6zM24,43.2H26.4V45.6H24zM26.4,43.2H28.8V45.6H26.4zM28.8,43.2H31.2V45.6H28.8zM31.2,43.2H33.6V45.6H31.2zM33.6,43.2H36V45.6H33.6zM36,43.2H38.4V45.6H36zM38.4,43.2H40.8V45.6H38.4zM40.8,43.2H43.2V45.6H40.8zM45.6,43.2H48V45.6H45.6zM50.4,43.2H52.8V45.6H50.4zM60,43.2H62.4V45.6H60zM67.2,43.2H69.6V45.6H67.2zM72,43.2H74.4V45.6H72zM74.4,43.2H76.8V45.6H74.4zM81.6,43.2H84V45.6H81.6zM84,43.2H86.4V45.6H84zM86.4,43.2H88.8V45.6H86.4zM88.8,43.2H91.2V45.6H88.8zM91.2,43.2H93.6V45.6H91.2zM93.6,43.2H96V45.6H93.6zM96,43.2H98.4V45.6H96zM9.6,45.6H12V48H9.6zM12,45.6H14.4V48H12zM14.4,45.6H16.8V48H14.4zM16.8,45.6H19.2V48H16.8zM19.2,45.6H21.6V48H19.2zM21.6,45.6H24V48H21.6zM31.2,45.6H33.6V48H31.2zM38.4,45.6H40.8V48H38.4zM40.8,45.6H43.2V48H40.8zM45.6,45.6H48V48H45.6zM50.4,45.6H52.8V48H50.4zM52.8,45.6H55.2V48H52.8zM57.6,45.6H60V48H57.6zM60,45.6H62.4V48H60zM64.8,45.6H67.2V48H64.8zM67.2,45.6H69.6V48H67.2zM74.4,45.6H76.8V48H74.4zM81.6,45.6H84V48H81.6zM84,45.6H86.4V48H84zM88.8,45.6H91.2V48H88.8zM91.2,45.6H93.6V48H91.2zM96,45.6H98.4V48H96zM12,48H14.4V50.4H12zM14.4,48H16.8V50.4H14.4zM19.2,48H21.6V50.4H19.2zM24,48H26.4V50.4H24zM28.8,48H31.2V50.4H28.8zM33.6,48H36V50.4H33.6zM36,48H38.4V50.4H36zM38.4,48H40.8V50.4H38.4zM40.8,48H43.2V50.4H40.8zM48,48H50.4V50.4H48zM50.4,48H52.8V50.4H50.4zM52.8,48H55.2V50.4H52.8zM62.4,48H64.8V50.4H62.4zM64.8,48H67.2V50.4H64.8zM69.6,48H72V50.4H69.6zM79.2,48H81.6V50.4H79.2zM81.6,48H84V50.4H81.6zM84,48H86.4V50.4H84zM91.2,48H93.6V50.4H91.2zM96,48H98.4V50.4H96zM12,50.4H14.4V52.8H12zM14.4,50.4H16.8V52.8H14.4zM16.8,50.4H19.2V52.8H16.8zM26.4,50.4H28.8V52.8H26.4zM31.2,50.4H33.6V52.8H31.2zM36,50.4H38.4V52.8H36zM38.4,50.4H40.8V52.8H38.4zM45.6,50.4H48V52.8H45.6zM48,50.4H50.4V52.8H48zM52.8,50.4H55.2V52.8H52.8zM55.2,50.4H57.6V52.8H55.2zM60,50.4H62.4V52.8H60zM62.4,50.4H64.8V52.8H62.4zM64.8,50.4H67.2V52.8H64.8zM67.2,50.4H69.6V52.8H67.2zM74.4,50.4H76.8V52.8H74.4zM76.8,50.4H79.2V52.8H76.8zM91.2,50.4H93.6V52.8H91.2zM93.6,50.4H96V52.8H93.6zM12,52.8H14.4V55.2H12zM16.8,52.8H19.2V55.2H16.8zM24,52.8H26.4V55.2H24zM26.4,52.8H28.8V55.2H26.4zM28.8,52.8H31.2V55.2H28.8zM31.2,52.8H33.6V55.2H31.2zM36,52.8H38.4V55.2H36zM40.8,52.8H43.2V55.2H40.8zM45.6,52.8H48V55.2H45.6zM50.4,52.8H52.8V55.2H50.4zM52.8,52.8H55.2V55.2H52.8zM55.2,52.8H57.6V55.2H55.2zM62.4,52.8H64.8V55.2H62.4zM64.8,52.8H67.2V55.2H64.8zM67.2,52.8H69.6V55.2H67.2zM69.6,52.8H72V55.2H69.6zM72,52.8H74.4V55.2H72zM74.4,52.8H76.8V55.2H74.4zM76.8,52.8H79.2V55.2H76.8zM79.2,52.8H81.6V55.2H79.2zM84,52.8H86.4V55.2H84zM91.2,52.8H93.6V55.2H91.2zM96,52.8H98.4V55.2H96zM9.6,55.2H12V57.6H9.6zM14.4,55.2H16.8V57.6H14.4zM16.8,55.2H19.2V57.6H16.8zM19.2,55.2H21.6V57.6H19.2zM21.6,55.2H24V57.6H21.6zM28.8,55.2H31.2V57.6H28.8zM31.2,55.2H33.6V57.6H31.2zM33.6,55.2H36V57.6H33.6zM36,55.2H38.4V57.6H36zM38.4,55.2H40.8V57.6H38.4zM45.6,55.2H48V57.6H45.6zM50.4,55.2H52.8V57.6H50.4zM57.6,55.2H60V57.6H57.6zM60,55.2H62.4V57.6H60zM69.6,55.2H72V57.6H69.6zM79.2,55.2H81.6V57.6H79.2zM81.6,55.2H84V57.6H81.6zM84,55.2H86.4V57.6H84zM86.4,55.2H88.8V57.6H86.4zM88.8,55.2H91.2V57.6H88.8zM93.6,55.2H96V57.6H93.6zM12,57.6H14.4V60H12zM19.2,57.6H21.6V60H19.2zM21.6,57.6H24V60H21.6zM24,57.6H26.4V60H24zM26.4,57.6H28.8V60H26.4zM40.8,57.6H43.2V60H40.8zM43.2,57.6H45.6V60H43.2zM45.6,57.6H48V60H45.6zM52.8,57.6H55.2V60H52.8zM72,57.6H74.4V60H72zM74.4,57.6H76.8V60H74.4zM76.8,57.6H79.2V60H76.8zM79.2,57.6H81.6V60H79.2zM81.6,57.6H84V60H81.6zM86.4,57.6H88.8V60H86.4zM88.8,57.6H91.2V60H88.8zM93.6,57.6H96V60H93.6zM96,57.6H98.4V60H96zM12,60H14.4V62.4H12zM19.2,60H21.6V62.4H19.2zM21.6,60H24V62.4H21.6zM26.4,60H28.8V62.4H26.4zM33.6,60H36V62.4H33.6zM36,60H38.4V62.4H36zM40.8,60H43.2V62.4H40.8zM43.2,60H45.6V62.4H43.2zM45.6,60H48V62.4H45.6zM50.4,60H52.8V62.4H50.4zM55.2,60H57.6V62.4H55.2zM64.8,60H67.2V62.4H64.8zM67.2,60H69.6V62.4H67.2zM69.6,60H72V62.4H69.6zM74.4,60H76.8V62.4H74.4zM76.8,60H79.2V62.4H76.8zM84,60H86.4V62.4H84zM86.4,60H88.8V62.4H86.4zM88.8,60H91.2V62.4H88.8zM91.2,60H93.6V62.4H91.2zM14.4,62.4H16.8V64.8H14.4zM24,62.4H26.4V64.8H24zM26.4,62.4H28.8V64.8H26.4zM31.2,62.4H33.6V64.8H31.2zM38.4,62.4H40.8V64.8H38.4zM48,62.4H50.4V64.8H48zM52.8,62.4H55.2V64.8H52.8zM57.6,62.4H60V64.8H57.6zM62.4,62.4H64.8V64.8H62.4zM67.2,62.4H69.6V64.8H67.2zM69.6,62.4H72V64.8H69.6zM74.4,62.4H76.8V64.8H74.4zM79.2,62.4H81.6V64.8H79.2zM81.6,62.4H84V64.8H81.6zM86.4,62.4H88.8V64.8H86.4zM96,62.4H98.4V64.8H96zM12,64.8H14.4V67.2H12zM19.2,64.8H21.6V67.2H19.2zM21.6,64.8H24V67.2H21.6zM26.4,64.8H28.8V67.2H26.4zM28.8,64.8H31.2V67.2H28.8zM31.2,64.8H33.6V67.2H31.2zM33.6,64.8H36V67.2H33.6zM36,64.8H38.4V67.2H36zM38.4,64.8H40.8V67.2H38.4zM40.8,64.8H43.2V67.2H40.8zM43.2,64.8H45.6V67.2H43.2zM45.6,64.8H48V67.2H45.6zM52.8,64.8H55.2V67.2H52.8zM67.2,64.8H69.6V67.2H67.2zM69.6,64.8H72V67.2H69.6zM74.4,64.8H76.8V67.2H74.4zM76.8,64.8H79.2V67.2H76.8zM84,64.8H86.4V67.2H84zM88.8,64.8H91.2V67.2H88.8zM91.2,64.8H93.6V67.2H91.2zM12,67.2H14.4V69.6H12zM14.4,67.2H16.8V69.6H14.4zM19.2,67.2H21.6V69.6H19.2zM21.6,67.2H24V69.6H21.6zM24,67.2H26.4V69.6H24zM31.2,67.2H33.6V69.6H31.2zM33.6,67.2H36V69.6H33.6zM36,67.2H38.4V69.6H36zM48,67.2H50.4V69.6H48zM50.4,67.2H52.8V69.6H50.4zM52.8,67.2H55.2V69.6H52.8zM55.2,67.2H57.6V69.6H55.2zM57.6,67.2H60V69.6H57.6zM62.4,67.2H64.8V69.6H62.4zM67.2,67.2H69.6V69.6H67.2zM69.6,67.2H72V69.6H69.6zM76.8,67.2H79.2V69.6H76.8zM79.2,67.2H81.6V69.6H79.2zM81.6,67.2H84V69.6H81.6zM84,67.2H86.4V69.6H84zM88.8,67.2H91.2V69.6H88.8zM9.6,69.6H12V72H9.6zM14.4,69.6H16.8V72H14.4zM21.6,69.6H24V72H21.6zM26.4,69.6H28.8V72H26.4zM31.2,69.6H33.6V72H31.2zM38.4,69.6H40.8V72H38.4zM40.8,69.6H43.2V72H40.8zM48,69.6H50.4V72H48zM50.4,69.6H52.8V72H50.4zM52.8,69.6H55.2V72H52.8zM69.6,69.6H72V72H69.6zM72,69.6H74.4V72H72zM86.4,69.6H88.8V72H86.4zM88.8,69.6H91.2V72H88.8zM91.2,69.6H93.6V72H91.2zM9.6,72H12V74.4H9.6zM12,72H14.4V74.4H12zM14.4,72H16.8V74.4H14.4zM24,72H26.4V74.4H24zM28.8,72H31.2V74.4H28.8zM33.6,72H36V74.4H33.6zM38.4,72H40.8V74.4H38.4zM45.6,72H48V74.4H45.6zM50.4,72H52.8V74.4H50.4zM55.2,72H57.6V74.4H55.2zM57.6,72H60V74.4H57.6zM60,72H62.4V74.4H60zM64.8,72H67.2V74.4H64.8zM67.2,72H69.6V74.4H67.2zM69.6,72H72V74.4H69.6zM72,72H74.4V74.4H72zM74.4,72H76.8V74.4H74.4zM81.6,72H84V74.4H81.6zM88.8,72H91.2V74.4H88.8zM91.2,72H93.6V74.4H91.2zM93.6,72H96V74.4H93.6zM96,72H98.4V74.4H96zM9.6,74.4H12V76.8H9.6zM16.8,74.4H19.2V76.8H16.8zM19.2,74.4H21.6V76.8H19.2zM21.6,74.4H24V76.8H21.6zM28.8,74.4H31.2V76.8H28.8zM33.6,74.4H36V76.8H33.6zM38.4,74.4H40.8V76.8H38.4zM45.6,74.4H48V76.8H45.6zM48,74.4H50.4V76.8H48zM50.4,74.4H52.8V76.8H50.4zM52.8,74.4H55.2V76.8H52.8zM60,74.4H62.4V76.8H60zM64.8,74.4H67.2V76.8H64.8zM72,74.4H74.4V76.8H72zM74.4,74.4H76.8V76.8H74.4zM79.2,74.4H81.6V76.8H79.2zM84,74.4H86.4V76.8H84zM86.4,74.4H88.8V76.8H86.4zM88.8,74.4H91.2V76.8H88.8zM91.2,74.4H93.6V76.8H91.2zM96,74.4H98.4V76.8H96zM9.6,76.8H12V79.2H9.6zM14.4,76.8H16.8V79.2H14.4zM21.6,76.8H24V79.2H21.6zM24,76.8H26.4V79.2H24zM26.4,76.8H28.8V79.2H26.4zM28.8,76.8H31.2V79.2H28.8zM31.2,76.8H33.6V79.2H31.2zM33.6,76.8H36V79.2H33.6zM36,76.8H38.4V79.2H36zM52.8,76.8H55.2V79.2H52.8zM55.2,76.8H57.6V79.2H55.2zM60,76.8H62.4V79.2H60zM62.4,76.8H64.8V79.2H62.4zM67.2,76.8H69.6V79.2H67.2zM69.6,76.8H72V79.2H69.6zM76.8,76.8H79.2V79.2H76.8zM79.2,76.8H81.6V79.2H79.2zM81.6,76.8H84V79.2H81.6zM84,76.8H86.4V79.2H84zM86.4,76.8H88.8V79.2H86.4zM88.8,76.8H91.2V79.2H88.8zM91.2,76.8H93.6V79.2H91.2zM96,76.8H98.4V79.2H96zM28.8,79.2H31.2V81.6H28.8zM31.2,79.2H33.6V81.6H31.2zM36,79.2H38.4V81.6H36zM40.8,79.2H43.2V81.6H40.8zM50.4,79.2H52.8V81.6H50.4zM52.8,79.2H55.2V81.6H52.8zM69.6,79.2H72V81.6H69.6zM76.8,79.2H79.2V81.6H76.8zM86.4,79.2H88.8V81.6H86.4zM88.8,79.2H91.2V81.6H88.8zM91.2,79.2H93.6V81.6H91.2zM93.6,79.2H96V81.6H93.6zM9.6,81.6H12V84H9.6zM12,81.6H14.4V84H12zM14.4,81.6H16.8V84H14.4zM16.8,81.6H19.2V84H16.8zM19.2,81.6H21.6V84H19.2zM21.6,81.6H24V84H21.6zM24,81.6H26.4V84H24zM28.8,81.6H31.2V84H28.8zM33.6,81.6H36V84H33.6zM40.8,81.6H43.2V84H40.8zM43.2,81.6H45.6V84H43.2zM48,81.6H50.4V84H48zM50.4,81.6H52.8V84H50.4zM52.8,81.6H55.2V84H52.8zM57.6,81.6H60V84H57.6zM62.4,81.6H64.8V84H62.4zM64.8,81.6H67.2V84H64.8zM67.2,81.6H69.6V84H67.2zM69.6,81.6H72V84H69.6zM72,81.6H74.4V84H72zM76.8,81.6H79.2V84H76.8zM81.6,81.6H84V84H81.6zM86.4,81.6H88.8V84H86.4zM88.8,81.6H91.2V84H88.8zM91.2,81.6H93.6V84H91.2zM96,81.6H98.4V84H96zM9.6,84H12V86.4H9.6zM24,84H26.4V86.4H24zM36,84H38.4V86.4H36zM38.4,84H40.8V86.4H38.4zM40.8,84H43.2V86.4H40.8zM48,84H50.4V86.4H48zM52.8,84H55.2V86.4H52.8zM60,84H62.4V86.4H60zM64.8,84H67.2V86.4H64.8zM67.2,84H69.6V86.4H67.2zM69.6,84H72V86.4H69.6zM76.8,84H79.2V86.4H76.8zM86.4,84H88.8V86.4H86.4zM88.8,84H91.2V86.4H88.8zM93.6,84H96V86.4H93.6zM9.6,86.4H12V88.8H9.6zM14.4,86.4H16.8V88.8H14.4zM16.8,86.4H19.2V88.8H16.8zM19.2,86.4H21.6V88.8H19.2zM24,86.4H26.4V88.8H24zM28.8,86.4H31.2V88.8H28.8zM31.2,86.4H33.6V88.8H31.2zM43.2,86.4H45.6V88.8H43.2zM50.4,86.4H52.8V88.8H50.4zM55.2,86.4H57.6V88.8H55.2zM60,86.4H62.4V88.8H60zM62.4,86.4H64.8V88.8H62.4zM72,86.4H74.4V88.8H72zM74.4,86.4H76.8V88.8H74.4zM76.8,86.4H79.2V88.8H76.8zM79.2,86.4H81.6V88.8H79.2zM81.6,86.4H84V88.8H81.6zM84,86.4H86.4V88.8H84zM86.4,86.4H88.8V88.8H86.4zM93.6,86.4H96V88.8H93.6zM9.6,88.8H12V91.2H9.6zM14.4,88.8H16.8V91.2H14.4zM16.8,88.8H19.2V91.2H16.8zM19.2,88.8H21.6V91.2H19.2zM24,88.8H26.4V91.2H24zM28.8,88.8H31.2V91.2H28.8zM38.4,88.8H40.8V91.2H38.4zM40.8,88.8H43.2V91.2H40.8zM43.2,88.8H45.6V91.2H43.2zM48,88.8H50.4V91.2H48zM52.8,88.8H55.2V91.2H52.8zM55.2,88.8H57.6V91.2H55.2zM57.6,88.8H60V91.2H57.6zM62.4,88.8H64.8V91.2H62.4zM67.2,88.8H69.6V91.2H67.2zM74.4,88.8H76.8V91.2H74.4zM81.6,88.8H84V91.2H81.6zM9.6,91.2H12V93.6H9.6zM14.4,91.2H16.8V93.6H14.4zM16.8,91.2H19.2V93.6H16.8zM19.2,91.2H21.6V93.6H19.2zM24,91.2H26.4V93.6H24zM33.6,91.2H36V93.6H33.6zM36,91.2H38.4V93.6H36zM38.4,91.2H40.8V93.6H38.4zM40.8,91.2H43.2V93.6H40.8zM50.4,91.2H52.8V93.6H50.4zM52.8,91.2H55.2V93.6H52.8zM55.2,91.2H57.6V93.6H55.2zM64.8,91.2H67.2V93.6H64.8zM69.6,91.2H72V93.6H69.6zM72,91.2H74.4V93.6H72zM76.8,91.2H79.2V93.6H76.8zM86.4,91.2H88.8V93.6H86.4zM91.2,91.2H93.6V93.6H91.2zM93.6,91.2H96V93.6H93.6zM96,91.2H98.4V93.6H96zM9.6,93.6H12V96H9.6zM24,93.6H26.4V96H24zM33.6,93.6H36V96H33.6zM48,93.6H50.4V96H48zM55.2,93.6H57.6V96H55.2zM60,93.6H62.4V96H60zM62.4,93.6H64.8V96H62.4zM64.8,93.6H67.2V96H64.8zM67.2,93.6H69.6V96H67.2zM74.4,93.6H76.8V96H74.4zM79.2,93.6H81.6V96H79.2zM81.6,93.6H84V96H81.6zM86.4,93.6H88.8V96H86.4zM91.2,93.6H93.6V96H91.2zM93.6,93.6H96V96H93.6zM96,93.6H98.4V96H96zM9.6,96H12V98.4H9.6zM12,96H14.4V98.4H12zM14.4,96H16.8V98.4H14.4zM16.8,96H19.2V98.4H16.8zM19.2,96H21.6V98.4H19.2zM21.6,96H24V98.4H21.6zM24,96H26.4V98.4H24zM36,96H38.4V98.4H36zM45.6,96H48V98.4H45.6zM50.4,96H52.8V98.4H50.4zM55.2,96H57.6V98.4H55.2zM64.8,96H67.2V98.4H64.8zM67.2,96H69.6V98.4H67.2zM74.4,96H76.8V98.4H74.4zM76.8,96H79.2V98.4H76.8zM79.2,96H81.6V98.4H79.2zM81.6,96H84V98.4H81.6zM84,96H86.4V98.4H84zM86.4,96H88.8V98.4H86.4zM96,96H98.4V98.4H96z" id="qr-path" fill="#000000" fill-opacity="1" fill-rule="nonzero" stroke="none" /></svg>